<svg width="251" height="176" viewBox="0 0 251 176" fill="none" xmlns="http://www.w3.org/2000/svg">
<g filter="url(#filter0_d_0_170)">
<rect x="40.5" y="10" width="170" height="96" rx="16" fill="white"/>
</g>
<g clip-path="url(#clip0_0_170)">
<path fill-rule="evenodd" clip-rule="evenodd" d="M138.399 67.025C132.414 71.5733 123.738 74 116.269 74C105.795 74 96.3662 70.0064 89.2329 63.3642C88.6724 62.8418 89.1746 62.13 89.8471 62.5368C97.5453 67.1544 107.064 69.9324 116.896 69.9324C123.527 69.9324 130.822 68.518 137.529 65.5828C138.543 65.1391 139.39 66.2669 138.399 67.025Z" fill="#FF9900"/>
<path fill-rule="evenodd" clip-rule="evenodd" d="M140.888 64.0899C140.126 63.0822 135.83 63.6138 133.903 63.8495C133.315 63.9235 133.225 63.3965 133.755 63.0175C137.175 60.5353 142.789 61.2518 143.443 62.0838C144.098 62.9204 143.273 68.7214 140.058 71.4901C139.565 71.9154 139.094 71.6889 139.314 71.125C140.036 69.2668 141.654 65.1021 140.888 64.0899Z" fill="#FF9900"/>
<path fill-rule="evenodd" clip-rule="evenodd" d="M134.037 45.4945V43.0816C134.037 42.7165 134.306 42.4715 134.629 42.4715H145.107C145.443 42.4715 145.712 42.7211 145.712 43.0816V45.1478C145.707 45.4945 145.425 45.9474 144.923 46.6639L139.493 54.6558C141.511 54.605 143.641 54.9146 145.47 55.9778C145.882 56.2181 145.994 56.5694 146.026 56.9161V59.4907C146.026 59.842 145.649 60.2534 145.255 60.0407C142.031 58.2981 137.749 58.1086 134.185 60.0592C133.822 60.2626 133.441 59.8559 133.441 59.5046V57.0594C133.441 56.6665 133.445 55.9963 133.826 55.4L140.117 46.1H134.642C134.306 46.1 134.037 45.855 134.037 45.4945Z" fill="black"/>
<path fill-rule="evenodd" clip-rule="evenodd" d="M95.8147 60.5492H92.6269C92.322 60.5261 92.0799 60.2903 92.0575 59.9899V43.1232C92.0575 42.7858 92.331 42.5177 92.6717 42.5177H95.6443C95.9537 42.5316 96.2003 42.7766 96.2227 43.0816V45.2865H96.281C97.0566 43.1556 98.5138 42.1618 100.478 42.1618C102.473 42.1618 103.719 43.1556 104.616 45.2865C105.387 43.1556 107.14 42.1618 109.019 42.1618C110.355 42.1618 111.816 42.7303 112.709 44.0061C113.717 45.4251 113.511 47.4867 113.511 49.294L113.507 59.939C113.507 60.2765 113.233 60.5492 112.892 60.5492H109.709C109.391 60.5261 109.135 60.2626 109.135 59.939V50.9996C109.135 50.2878 109.198 48.5128 109.046 47.8379C108.808 46.7055 108.095 46.3866 107.171 46.3866C106.4 46.3866 105.593 46.9181 105.266 47.7686C104.939 48.6191 104.97 50.0428 104.97 50.9996V59.939C104.97 60.2765 104.697 60.5492 104.356 60.5492H101.173C100.85 60.5261 100.599 60.2626 100.599 59.939L100.594 50.9996C100.594 49.1183 100.895 46.3496 98.6303 46.3496C96.3393 46.3496 96.4289 49.049 96.4289 50.9996V59.939C96.4289 60.2765 96.1554 60.5492 95.8147 60.5492" fill="black"/>
<path fill-rule="evenodd" clip-rule="evenodd" d="M154.733 42.1618C159.463 42.1618 162.023 46.3496 162.023 51.6744C162.023 56.819 159.194 60.9005 154.733 60.9005C150.088 60.9005 147.559 56.7127 147.559 51.4942C147.559 46.2433 150.119 42.1618 154.733 42.1618ZM154.759 45.6054C152.41 45.6054 152.262 48.9057 152.262 50.9626C152.262 53.0241 152.231 57.4245 154.733 57.4245C157.203 57.4245 157.32 53.8746 157.32 51.7114C157.32 50.2878 157.261 48.5868 156.844 47.2371C156.486 46.063 155.773 45.6054 154.759 45.6054Z" fill="black"/>
<path fill-rule="evenodd" clip-rule="evenodd" d="M168.156 60.5492H164.982C164.664 60.5261 164.408 60.2626 164.408 59.939L164.404 43.0678C164.431 42.7581 164.695 42.5177 165.018 42.5177H167.973C168.251 42.5316 168.479 42.7257 168.542 42.9892V45.5684H168.6C169.492 43.2619 170.743 42.1618 172.945 42.1618C174.375 42.1618 175.769 42.6934 176.666 44.1494C177.5 45.4991 177.5 47.7686 177.5 49.4003V60.0176C177.464 60.3134 177.2 60.5492 176.886 60.5492H173.689C173.398 60.5261 173.155 60.3042 173.124 60.0176V50.8563C173.124 49.012 173.33 46.3126 171.129 46.3126C170.353 46.3126 169.64 46.8488 169.286 47.6623C168.838 48.6931 168.78 49.7192 168.78 50.8563V59.939C168.775 60.2765 168.497 60.5492 168.156 60.5492" fill="black"/>
<path fill-rule="evenodd" clip-rule="evenodd" d="M125.684 52.4926C125.684 53.7729 125.715 54.8407 125.088 55.9778C124.581 56.9022 123.774 57.4708 122.882 57.4708C121.658 57.4708 120.94 56.5093 120.94 55.0903C120.94 52.2892 123.375 51.7807 125.684 51.7807V52.4926ZM128.899 60.503C128.688 60.6971 128.383 60.711 128.145 60.5815C127.087 59.6756 126.895 59.255 126.316 58.3906C124.568 60.2303 123.326 60.7803 121.061 60.7803C118.376 60.7803 116.291 59.0747 116.291 55.6588C116.291 52.9918 117.69 51.1752 119.69 50.2877C121.42 49.502 123.837 49.3633 125.684 49.146V48.7208C125.684 47.9396 125.742 47.0152 125.294 46.3403C124.908 45.7348 124.164 45.4852 123.505 45.4852C122.29 45.4852 121.209 46.1277 120.945 47.4589C120.891 47.7547 120.68 48.0459 120.389 48.0598L117.3 47.7178C117.04 47.6577 116.748 47.4404 116.825 47.029C117.533 43.1648 120.923 42 123.953 42C125.505 42 127.531 42.4253 128.755 43.6363C130.307 45.1293 130.159 47.1215 130.159 49.2893V54.4108C130.159 55.95 130.777 56.6249 131.36 57.4569C131.562 57.7527 131.607 58.1086 131.347 58.3305C130.697 58.8898 129.54 59.9298 128.903 60.5122L128.899 60.503" fill="black"/>
<path fill-rule="evenodd" clip-rule="evenodd" d="M83.893 52.4928C83.893 53.7731 83.9244 54.8409 83.2967 55.978C82.79 56.9024 81.9875 57.471 81.0908 57.471C79.8668 57.471 79.1539 56.5095 79.1539 55.0905C79.1539 52.2894 81.5884 51.7809 83.893 51.7809V52.4928ZM87.1077 60.5032C86.8969 60.6973 86.5921 60.7112 86.3544 60.5817C85.2963 59.6758 85.108 59.2552 84.5252 58.3908C82.7766 60.2304 81.5391 60.7805 79.2705 60.7805C76.5893 60.7805 74.5 59.0749 74.5 55.659C74.5 52.992 75.9033 51.1754 77.8985 50.2879C79.6291 49.5022 82.0458 49.3635 83.893 49.1462V48.721C83.893 47.9398 83.9513 47.0154 83.5074 46.3405C83.1173 45.735 82.3731 45.4854 81.7185 45.4854C80.5034 45.4854 79.4184 46.1279 79.1539 47.4591C79.1001 47.7549 78.8894 48.0461 78.6024 48.06L75.5088 47.718C75.2487 47.6579 74.9618 47.4406 75.0335 47.0292C75.7464 43.165 79.1315 42.0002 82.1623 42.0002C83.7136 42.0002 85.7402 42.4255 86.9642 43.6365C88.5155 45.1295 88.3675 47.1217 88.3675 49.2895V54.411C88.3675 55.9502 88.9863 56.6251 89.5691 57.4571C89.7754 57.7529 89.8202 58.1088 89.5602 58.3307C88.91 58.89 87.7533 59.93 87.1166 60.5124L87.1077 60.5031" fill="black"/>
</g>
<defs>
<filter id="filter0_d_0_170" x="0.5" y="0" width="250" height="176" filterUnits="userSpaceOnUse" color-interpolation-filters="sRGB">
<feFlood flood-opacity="0" result="BackgroundImageFix"/>
<feColorMatrix in="SourceAlpha" type="matrix" values="0 0 0 0 0 0 0 0 0 0 0 0 0 0 0 0 0 0 127 0" result="hardAlpha"/>
<feOffset dy="30"/>
<feGaussianBlur stdDeviation="20"/>
<feColorMatrix type="matrix" values="0 0 0 0 0.831373 0 0 0 0 0.85098 0 0 0 0 0.909804 0 0 0 0.2 0"/>
<feBlend mode="normal" in2="BackgroundImageFix" result="effect1_dropShadow_0_170"/>
<feBlend mode="normal" in="SourceGraphic" in2="effect1_dropShadow_0_170" result="shape"/>
</filter>
<clipPath id="clip0_0_170">
<rect width="103" height="32" fill="white" transform="translate(74.5 42)"/>
</clipPath>
</defs>
</svg>
