<svg width="251" height="176" viewBox="0 0 251 176" fill="none" xmlns="http://www.w3.org/2000/svg">
<g filter="url(#filter0_d_0_132)">
<rect x="40.5" y="10" width="170" height="96" rx="16" fill="white"/>
</g>
<path fill-rule="evenodd" clip-rule="evenodd" d="M141.7 51.31L139.7 47.93L136.15 49.62L134.15 46.23L130.6 47.93L128.61 44.53L125.06 46.23L123.06 42.84L119.51 44.54L117.52 41.14L113.96 42.84L106.43 67.36L115.58 70.16C115.925 69.0548 116.653 68.1094 117.634 67.4945C118.615 66.8797 119.784 66.636 120.928 66.8075C122.073 66.979 123.119 67.5543 123.877 68.4296C124.635 69.3049 125.054 70.4223 125.06 71.58V71.68C125.08 72.12 125.03 72.56 124.9 73L134.2 75.85L141.7 51.31Z" fill="#D61920"/>
<path fill-rule="evenodd" clip-rule="evenodd" d="M114.28 65.34C114.049 65.3017 113.839 65.1818 113.688 65.002C113.538 64.8222 113.457 64.5944 113.46 64.36V52.36C113.459 52.2283 113.484 52.0977 113.533 51.9757C113.583 51.8538 113.657 51.743 113.75 51.6499C113.843 51.5568 113.954 51.4832 114.076 51.4334C114.198 51.3836 114.328 51.3587 114.46 51.36H123.13C123.641 51.3587 124.147 51.458 124.619 51.6523C125.092 51.8466 125.521 52.132 125.884 52.4923C126.246 52.8526 126.533 53.2807 126.73 53.7521C126.927 54.2236 127.029 54.7292 127.03 55.24V64.36C127.03 64.5073 126.997 64.6527 126.934 64.7858C126.871 64.9189 126.779 65.0365 126.666 65.1301C126.552 65.2238 126.419 65.2911 126.276 65.3274C126.134 65.3637 125.985 65.368 125.84 65.34C125.61 65.2996 125.403 65.1788 125.254 64.9992C125.106 64.8196 125.026 64.593 125.03 64.36V55.25C125.03 54.7461 124.83 54.2628 124.473 53.9065C124.117 53.5502 123.634 53.35 123.13 53.35H121.24V64.35C121.241 64.484 121.215 64.6168 121.163 64.7405C121.111 64.8641 121.036 64.9762 120.94 65.07C120.826 65.1829 120.687 65.2665 120.533 65.3135C120.38 65.3605 120.218 65.3696 120.06 65.34C119.829 65.3017 119.619 65.1818 119.468 65.002C119.318 64.8222 119.237 64.5944 119.24 64.36V53.35H115.46V64.35C115.461 64.4971 115.429 64.6426 115.368 64.7761C115.306 64.9096 115.215 65.0279 115.103 65.1224C114.99 65.217 114.858 65.2855 114.716 65.3231C114.573 65.3607 114.425 65.3665 114.28 65.34ZM128.7 70.57C128.467 70.5315 128.256 70.4101 128.105 70.2282C127.954 70.0463 127.874 69.8161 127.88 69.58C127.881 69.3177 127.985 69.0663 128.17 68.88C128.355 68.6916 128.606 68.5838 128.87 68.58C129.72 68.58 130.45 68.04 130.69 67.23L131.72 63.8L128.35 52.53C128.31 52.404 128.295 52.2712 128.306 52.1394C128.318 52.0076 128.355 51.8794 128.417 51.7622C128.478 51.645 128.562 51.5411 128.664 51.4567C128.766 51.3722 128.883 51.3087 129.01 51.27C129.262 51.2002 129.531 51.2297 129.762 51.3525C129.992 51.4753 130.167 51.6821 130.25 51.93L132.75 60.33L135.29 51.93C135.41 51.47 135.92 51.16 136.44 51.26L136.51 51.27C137.05 51.44 137.35 52.01 137.19 52.54L133.72 64.1L132.62 67.8C132.373 68.5963 131.884 69.2955 131.22 69.8C130.545 70.3063 129.724 70.58 128.88 70.58C128.82 70.5823 128.759 70.579 128.7 70.57Z" fill="#FEFEFE"/>
<path fill-rule="evenodd" clip-rule="evenodd" d="M67.58 63.15H69.54C70.0625 63.15 70.5635 62.9424 70.933 62.573C71.3024 62.2036 71.51 61.7025 71.51 61.18V55.41C71.5113 55.1513 71.4616 54.8949 71.3639 54.6553C71.2661 54.4158 71.1221 54.1979 70.9401 54.0141C70.7581 53.8302 70.5416 53.684 70.3031 53.5838C70.0646 53.4836 69.8087 53.4313 69.55 53.43H67.58V63.13V63.15ZM66.35 65.21C66.1099 65.1694 65.8922 65.0443 65.7363 64.8572C65.5804 64.6702 65.4966 64.4335 65.5 64.19V46.27C65.4982 46.1329 65.5238 45.9968 65.5754 45.8697C65.6269 45.7427 65.7032 45.6272 65.8 45.53C65.917 45.4085 66.0621 45.3175 66.2226 45.2652C66.383 45.2129 66.5538 45.2008 66.72 45.23C67.22 45.33 67.58 45.75 67.58 46.26V51.36H69.54C70.0714 51.3587 70.5978 51.4622 71.0891 51.6647C71.5804 51.8671 72.0269 52.1645 72.4032 52.5397C72.7794 52.915 73.0778 53.3608 73.2815 53.8516C73.4852 54.3425 73.59 54.8686 73.59 55.4V61.17C73.5873 62.2407 73.1608 63.2667 72.4038 64.0238C71.6467 64.7809 70.6206 65.2074 69.55 65.21H66.54C66.4731 65.214 66.4061 65.2106 66.34 65.2L66.35 65.21Z" fill="#333545"/>
<path fill-rule="evenodd" clip-rule="evenodd" d="M80.64 53.35C80.5277 53.3304 80.414 53.3203 80.3 53.32C80.0406 53.3173 79.7832 53.3665 79.543 53.4645C79.3028 53.5626 79.0845 53.7076 78.9011 53.891C78.7176 54.0745 78.5726 54.2927 78.4745 54.533C78.3765 54.7732 78.3273 55.0306 78.33 55.29V61.3C78.3287 61.5591 78.3787 61.8158 78.4773 62.0555C78.5758 62.2951 78.7209 62.5128 78.9041 62.696C79.0873 62.8791 79.305 63.0242 79.5446 63.1227C79.7842 63.2213 80.0409 63.2713 80.3 63.27C80.8225 63.27 81.3236 63.0624 81.693 62.693C82.0625 62.3236 82.27 61.8225 82.27 61.3V55.3C82.27 54.33 81.58 53.52 80.64 53.35ZM79.59 65.3C78.6524 65.1351 77.8032 64.6443 77.1921 63.9143C76.5811 63.1843 76.2474 62.262 76.25 61.31V55.3C76.2483 54.7681 76.3526 54.2412 76.5569 53.7501C76.7613 53.259 77.0615 52.8137 77.44 52.44C77.8155 52.0646 78.2615 51.7671 78.7523 51.5646C79.2431 51.3621 79.7691 51.2586 80.3 51.26C81.3715 51.26 82.3991 51.6856 83.1567 52.4433C83.9144 53.2009 84.34 54.2285 84.34 55.3V61.31C84.34 62.39 83.92 63.41 83.15 64.18C82.7761 64.5546 82.3318 64.8517 81.8427 65.0542C81.3536 65.2567 80.8294 65.3606 80.3 65.36C80.062 65.361 79.8245 65.3409 79.59 65.3ZM91.39 53.36C91.2778 53.3403 91.164 53.3303 91.05 53.33C90.7906 53.3273 90.5332 53.3765 90.293 53.4745C90.0528 53.5726 89.8345 53.7176 89.6511 53.901C89.4676 54.0845 89.3226 54.3027 89.2245 54.543C89.1265 54.7832 89.0773 55.0406 89.08 55.3V61.31C89.0787 61.5691 89.1287 61.8258 89.2273 62.0654C89.3258 62.3051 89.4709 62.5228 89.6541 62.706C89.8373 62.8891 90.055 63.0342 90.2946 63.1327C90.5342 63.2313 90.7909 63.2813 91.05 63.28C91.3091 63.2813 91.5659 63.2313 91.8055 63.1327C92.0451 63.0342 92.2628 62.8891 92.446 62.706C92.6292 62.5228 92.7742 62.3051 92.8728 62.0654C92.9713 61.8258 93.0213 61.5691 93.02 61.31V55.3C93.02 54.34 92.33 53.53 91.39 53.36ZM90.34 65.3C89.4043 65.1329 88.5574 64.6413 87.9483 63.9115C87.3392 63.1817 87.007 62.2605 87.01 61.31V55.3C87.0116 54.7106 87.1418 54.1287 87.3915 53.5949C87.6412 53.0611 88.0043 52.5881 88.4557 52.2092C88.907 51.8302 89.4357 51.5543 90.0046 51.4007C90.5736 51.2471 91.1693 51.2196 91.75 51.32C92.6878 51.4825 93.538 51.9709 94.1509 52.699C94.7637 53.4272 95.0999 54.3483 95.1 55.3V61.31C95.1012 61.8442 94.9957 62.3733 94.7897 62.8661C94.5836 63.359 94.2811 63.8057 93.9 64.18C93.5261 64.5546 93.0818 64.8517 92.5927 65.0542C92.1036 65.2567 91.5794 65.3606 91.05 65.36C90.81 65.36 90.57 65.34 90.34 65.3ZM98.61 65.34C98.3699 65.2994 98.1522 65.1743 97.9963 64.9872C97.8404 64.8002 97.7566 64.5635 97.76 64.32V46.27C97.76 45.99 97.86 45.72 98.06 45.53C98.178 45.4135 98.3223 45.3273 98.4807 45.2785C98.6392 45.2298 98.807 45.22 98.97 45.25C99.47 45.33 99.84 45.76 99.84 46.27V56.95L104.62 51.59C104.86 51.33 105.22 51.21 105.58 51.27C105.762 51.3004 105.932 51.3788 106.073 51.4972C106.213 51.6156 106.32 51.7695 106.381 51.9431C106.443 52.1166 106.456 52.3034 106.421 52.484C106.385 52.6646 106.302 52.8324 106.18 52.97L102.57 57L106.3 63.83C106.367 63.9452 106.411 64.0727 106.428 64.2049C106.445 64.3371 106.436 64.4715 106.4 64.6C106.361 64.7325 106.296 64.8557 106.209 64.9623C106.121 65.0689 106.013 65.1565 105.89 65.22C105.678 65.3417 105.43 65.3843 105.19 65.34C105.041 65.3147 104.899 65.2568 104.774 65.1704C104.65 65.084 104.546 64.9712 104.47 64.84L101.11 58.66L99.83 60.07V64.32C99.83 64.5958 99.7204 64.8604 99.5254 65.0554C99.3304 65.2504 99.0658 65.36 98.79 65.36C98.72 65.36 98.66 65.36 98.59 65.34H98.61ZM144.42 65.33C143.858 65.2358 143.323 65.0173 142.856 64.6903C142.389 64.3633 142.001 63.9361 141.72 63.44C141.583 63.1969 141.547 62.9094 141.62 62.64C141.7 62.38 141.87 62.16 142.1 62.02C142.314 61.9033 142.561 61.8644 142.8 61.91C143.1 61.96 143.37 62.14 143.52 62.41C143.79 62.87 144.22 63.17 144.75 63.26C145.023 63.3075 145.304 63.2925 145.57 63.2163C145.837 63.1402 146.083 63.0047 146.29 62.82C146.69 62.45 146.89 61.92 146.84 61.4C146.829 61.1335 146.755 60.8733 146.625 60.6405C146.495 60.4077 146.311 60.2088 146.09 60.06L143.29 58.07C142.834 57.7497 142.454 57.3326 142.177 56.8487C141.901 56.3647 141.734 55.8257 141.69 55.27C141.654 54.7094 141.746 54.1479 141.959 53.6281C142.172 53.1083 142.501 52.6439 142.92 52.27C143.329 51.8897 143.818 51.6053 144.351 51.4375C144.883 51.2697 145.447 51.2228 146 51.3C147.18 51.5 148.14 52.18 148.69 53.14C148.823 53.3799 148.857 53.6618 148.786 53.9266C148.715 54.1913 148.545 54.4183 148.31 54.56C148.098 54.6817 147.85 54.7243 147.61 54.68C147.461 54.6547 147.319 54.5968 147.194 54.5104C147.07 54.424 146.966 54.3112 146.89 54.18C146.765 53.9678 146.594 53.7861 146.39 53.6478C146.186 53.5094 145.954 53.418 145.71 53.38C145.461 53.3349 145.205 53.3485 144.962 53.4196C144.719 53.4908 144.495 53.6176 144.31 53.79C144.129 53.9609 143.988 54.1695 143.896 54.4011C143.804 54.6326 143.765 54.8815 143.78 55.13C143.8 55.62 144.08 56.1 144.5 56.38L147.3 58.33C147.775 58.6628 148.168 59.0997 148.449 59.6075C148.73 60.1153 148.891 60.6805 148.92 61.26C148.966 61.8368 148.877 62.4164 148.66 62.9528C148.443 63.4893 148.104 63.9676 147.67 64.35C147.248 64.7425 146.743 65.0359 146.193 65.2089C145.643 65.3819 145.061 65.4301 144.49 65.35L144.41 65.33H144.42ZM152.45 65.36C152.21 65.3178 151.992 65.1925 151.835 65.0061C151.678 64.8196 151.591 64.5839 151.59 64.34V46.29C151.589 46.1531 151.615 46.0172 151.666 45.8904C151.718 45.7637 151.795 45.6485 151.892 45.5516C151.988 45.4548 152.104 45.3782 152.23 45.3264C152.357 45.2747 152.493 45.2487 152.63 45.25L152.83 45.26C153.33 45.36 153.67 45.77 153.67 46.29V51.39H155.64C156.171 51.3887 156.697 51.4923 157.188 51.6948C157.678 51.8974 158.124 52.1949 158.5 52.5703C158.875 52.9458 159.173 53.3916 159.375 53.8824C159.578 54.3731 159.681 54.8991 159.68 55.43V64.33C159.681 64.481 159.649 64.6303 159.585 64.7674C159.522 64.9045 159.429 65.026 159.314 65.1234C159.198 65.2207 159.063 65.2914 158.917 65.3306C158.771 65.3698 158.619 65.3764 158.47 65.35C157.97 65.26 157.61 64.83 157.61 64.32V55.42C157.61 55.1618 157.559 54.9061 157.46 54.6676C157.361 54.4292 157.215 54.2127 157.032 54.0305C156.849 53.8484 156.632 53.7042 156.393 53.6063C156.154 53.5084 155.898 53.4587 155.64 53.46H153.67V64.33C153.671 64.482 153.639 64.6324 153.575 64.7703C153.511 64.9083 153.417 65.0304 153.301 65.1279C153.184 65.2254 153.047 65.2959 152.9 65.3343C152.753 65.3727 152.599 65.378 152.45 65.35V65.36ZM166.73 53.37C166.447 53.3186 166.155 53.3302 165.877 53.4041C165.599 53.478 165.34 53.6124 165.119 53.7976C164.899 53.9828 164.722 54.2144 164.601 54.4758C164.48 54.7372 164.418 55.022 164.42 55.31V61.32C164.419 61.5782 164.468 61.8342 164.566 62.0731C164.664 62.3121 164.808 62.5293 164.991 62.7124C165.173 62.8955 165.389 63.0407 165.628 63.1399C165.866 63.239 166.122 63.29 166.38 63.29C166.9 63.29 167.4 63.09 167.77 62.72C167.955 62.5372 168.102 62.3191 168.202 62.0786C168.301 61.8382 168.352 61.5803 168.35 61.32V55.3C168.35 54.34 167.67 53.52 166.72 53.36L166.73 53.37ZM165.67 65.29C164.735 65.1251 163.888 64.6354 163.279 63.9073C162.67 63.1792 162.337 62.2594 162.34 61.31V55.3C162.34 54.7098 162.469 54.1268 162.718 53.5917C162.967 53.0566 163.33 52.5825 163.782 52.2024C164.233 51.8223 164.763 51.5455 165.332 51.3914C165.902 51.2372 166.498 51.2094 167.08 51.31C168.019 51.4728 168.871 51.9627 169.484 52.6929C170.097 53.4231 170.432 54.3466 170.43 55.3V61.31C170.43 61.8426 170.325 62.3699 170.119 62.861C169.912 63.3522 169.61 63.7972 169.23 64.17C168.771 64.6306 168.208 64.9731 167.588 65.1682C166.968 65.3632 166.31 65.405 165.67 65.29Z" fill="#333545"/>
<path fill-rule="evenodd" clip-rule="evenodd" d="M186.4 52.54C186.434 52.413 186.443 52.2804 186.426 52.15C186.409 52.0196 186.366 51.8939 186.3 51.78C186.224 51.6586 186.125 51.5536 186.009 51.4712C185.892 51.3887 185.76 51.3305 185.62 51.3C185.362 51.2513 185.095 51.3028 184.874 51.444C184.653 51.5852 184.494 51.8056 184.43 52.06C184.43 52.11 183.31 56.62 182.43 60.05L182.41 60.12L182.39 60.05L180.39 52.07C180.352 51.8752 180.254 51.6969 180.111 51.5592C179.968 51.4215 179.786 51.331 179.59 51.3C179.531 51.2883 179.47 51.2816 179.41 51.28C178.95 51.28 178.55 51.6 178.42 52.06C178.41 52.11 177.29 56.62 176.42 60.05L176.4 60.12L176.38 60.05C175.53 56.62 174.38 52.11 174.38 52.06C174.333 51.8686 174.231 51.695 174.088 51.5601C173.944 51.4252 173.764 51.3349 173.57 51.3C173.404 51.2706 173.232 51.283 173.072 51.3361C172.911 51.3893 172.767 51.4815 172.651 51.6044C172.535 51.7274 172.451 51.8773 172.407 52.0406C172.363 52.2039 172.361 52.3755 172.4 52.54L175.41 64.57C175.467 64.7905 175.595 64.9861 175.773 65.127C175.952 65.268 176.172 65.3463 176.4 65.35C176.89 65.35 177.28 65.03 177.38 64.57L179.38 56.58L179.41 56.51L179.43 56.58C180.31 60.05 181.43 64.58 181.43 64.58C181.49 64.7962 181.617 64.9876 181.793 65.1261C181.97 65.2647 182.186 65.3431 182.41 65.35C182.64 65.3572 182.866 65.2829 183.047 65.1403C183.228 64.9976 183.353 64.7957 183.4 64.57L186.4 52.54Z" fill="#333545"/>
<defs>
<filter id="filter0_d_0_132" x="0.5" y="0" width="250" height="176" filterUnits="userSpaceOnUse" color-interpolation-filters="sRGB">
<feFlood flood-opacity="0" result="BackgroundImageFix"/>
<feColorMatrix in="SourceAlpha" type="matrix" values="0 0 0 0 0 0 0 0 0 0 0 0 0 0 0 0 0 0 127 0" result="hardAlpha"/>
<feOffset dy="30"/>
<feGaussianBlur stdDeviation="20"/>
<feColorMatrix type="matrix" values="0 0 0 0 0.831373 0 0 0 0 0.85098 0 0 0 0 0.909804 0 0 0 0.2 0"/>
<feBlend mode="normal" in2="BackgroundImageFix" result="effect1_dropShadow_0_132"/>
<feBlend mode="normal" in="SourceGraphic" in2="effect1_dropShadow_0_132" result="shape"/>
</filter>
</defs>
</svg>
