<svg width="77" height="77" viewBox="0 0 77 77" fill="none" xmlns="http://www.w3.org/2000/svg">
<path d="M38.5079 38.505V9.72827" stroke="black" stroke-width="2" stroke-linecap="round" stroke-linejoin="round"/>
<path d="M63.4488 24.1165L13.567 52.8932" stroke="black" stroke-width="2" stroke-linecap="round" stroke-linejoin="round"/>
<path d="M10.1888 43.7657C8.94189 37.023 10.1416 30.057 13.5724 24.1187C17.0033 18.1803 22.4405 13.6586 28.9077 11.3657V32.9669L10.1888 43.7657Z" stroke="black" stroke-width="2" stroke-linecap="round" stroke-linejoin="round"/>
<path d="M38.5079 9.72827C43.5536 9.7292 48.5105 11.0547 52.8822 13.5721C57.2539 16.0894 60.887 19.7103 63.4177 24.072C65.9483 28.4338 67.2877 33.3833 67.3017 38.425C67.3157 43.4667 66.0039 48.4237 63.4975 52.7994C60.9911 57.1751 57.3782 60.8161 53.0206 63.3577C48.6629 65.8992 43.7135 67.2523 38.6679 67.2812C33.6223 67.3101 28.6576 66.014 24.2711 63.5226C19.8845 61.0311 16.23 57.4319 13.6735 53.0852" stroke="black" stroke-width="2" stroke-linecap="round" stroke-linejoin="round"/>
</svg>
