<svg width="78" height="77" viewBox="0 0 78 77" fill="none" xmlns="http://www.w3.org/2000/svg">
<path d="M14.0888 59.0197C14.1636 59.3349 14.3015 59.6317 14.4941 59.8923C14.6867 60.1529 14.9301 60.3719 15.2096 60.5361C15.4891 60.7002 15.799 60.8062 16.1206 60.8476C16.4421 60.889 16.7688 60.8649 17.0808 60.7769C31.3872 56.8299 46.4963 56.8285 60.8035 60.7728C61.1154 60.8607 61.4419 60.8847 61.7633 60.8433C62.0848 60.8019 62.3945 60.696 62.674 60.5319C62.9534 60.3679 63.1967 60.149 63.3893 59.8886C63.582 59.6281 63.7199 59.3314 63.7948 59.0164L71.4412 26.5476C71.5436 26.1129 71.5224 25.6583 71.3802 25.235C71.238 24.8117 70.9803 24.4365 70.6361 24.1516C70.292 23.8667 69.8751 23.6835 69.4324 23.6226C68.9897 23.5617 68.5387 23.6255 68.1304 23.8069L52.9556 30.546C52.4077 30.7893 51.7884 30.8189 51.2197 30.6288C50.6511 30.4388 50.1742 30.0429 49.883 29.5192L41.0475 13.6277C40.8396 13.2539 40.5355 12.9424 40.1667 12.7255C39.7978 12.5087 39.3776 12.3943 38.9496 12.3943C38.5216 12.3943 38.1014 12.5087 37.7325 12.7255C37.3636 12.9424 37.0595 13.2539 36.8516 13.6277L28.0162 29.5192C27.725 30.0429 27.2481 30.4388 26.6794 30.6288C26.1107 30.8189 25.4915 30.7893 24.9435 30.546L9.76649 23.8059C9.3582 23.6246 8.90736 23.5607 8.46472 23.6216C8.02209 23.6824 7.60524 23.8655 7.26111 24.1503C6.91698 24.435 6.65924 24.8101 6.51689 25.2333C6.37455 25.6565 6.35326 26.111 6.45543 26.5456L14.0888 59.0197Z" stroke="black" stroke-width="2" stroke-linecap="round" stroke-linejoin="round"/>
<path d="M29.3499 48.7266C35.7321 48.0557 42.1672 48.0557 48.5494 48.7266" stroke="black" stroke-width="2" stroke-linecap="round" stroke-linejoin="round"/>
</svg>
