<svg width="69" height="68" viewBox="0 0 69 68" fill="none" xmlns="http://www.w3.org/2000/svg">
<path d="M43.4362 43.0334C48.4023 43.0334 52.4281 39.0107 52.4281 34.0486C52.4281 29.0864 48.4023 25.0637 43.4362 25.0637C38.4701 25.0637 34.4443 29.0864 34.4443 34.0486C34.4443 39.0107 38.4701 43.0334 43.4362 43.0334Z" stroke="black" stroke-width="2" stroke-linecap="round" stroke-linejoin="round"/>
<path d="M34.4443 25.0637V7.09424H25.4524C23.0677 7.09424 20.7805 8.04085 19.0942 9.72583C17.4079 11.4108 16.4606 13.6961 16.4606 16.0791C16.4606 18.462 17.4079 20.7473 19.0942 22.4323C20.7805 24.1173 23.0677 25.0639 25.4524 25.0639L34.4443 25.0637Z" stroke="black" stroke-width="2" stroke-linecap="round" stroke-linejoin="round"/>
<path d="M34.4443 43.0331V25.0637H25.4524C23.0677 25.0637 20.7805 26.0103 19.0942 27.6953C17.4079 29.3803 16.4606 31.6656 16.4606 34.0486C16.4606 36.4315 17.4079 38.7168 19.0942 40.4018C20.7805 42.0868 23.0677 43.0334 25.4524 43.0334L34.4443 43.0331Z" stroke="black" stroke-width="2" stroke-linecap="round" stroke-linejoin="round"/>
<path d="M34.4443 25.0637V7.09424H43.4362C45.821 7.09424 48.1081 8.04085 49.7944 9.72583C51.4807 11.4108 52.4281 13.6961 52.4281 16.0791C52.4281 18.462 51.4807 20.7473 49.7944 22.4323C48.1081 24.1173 45.821 25.0639 43.4362 25.0639L34.4443 25.0637Z" stroke="black" stroke-width="2" stroke-linecap="round" stroke-linejoin="round"/>
<path d="M34.4443 43.0332V52.0181C34.4444 53.7952 33.917 55.5323 32.929 57.0099C31.941 58.4874 30.5366 59.6391 28.8936 60.3191C27.2505 60.9992 25.4426 61.1771 23.6983 60.8305C21.954 60.4838 20.3518 59.6281 19.0943 58.3715C17.8367 57.115 16.9803 55.5141 16.6334 53.7712C16.2864 52.0283 16.4645 50.2217 17.145 48.5799C17.8256 46.9382 18.9781 45.5349 20.4568 44.5477C21.9355 43.5604 23.674 43.0334 25.4525 43.0334L34.4443 43.0332Z" stroke="black" stroke-width="2" stroke-linecap="round" stroke-linejoin="round"/>
</svg>
