<svg width="179" height="33" viewBox="0 0 179 33" fill="none" xmlns="http://www.w3.org/2000/svg">
<g clip-path="url(#clip0_0_234)">
<path d="M161.924 28.2816C168.621 28.2816 174.05 22.8568 174.05 16.1651C174.05 9.47333 168.621 4.04858 161.924 4.04858C155.227 4.04858 149.798 9.47333 149.798 16.1651C149.798 22.8568 155.227 28.2816 161.924 28.2816Z" stroke="white" stroke-width="2" stroke-linecap="round" stroke-linejoin="round"/>
<path d="M166.976 11.1166H164.955C164.151 11.1166 163.38 11.4357 162.812 12.0038C162.243 12.5719 161.924 13.3423 161.924 14.1457V28.2816" stroke="white" stroke-width="2" stroke-linecap="round" stroke-linejoin="round"/>
<path d="M157.882 18.1846H165.966" stroke="white" stroke-width="2" stroke-linecap="round" stroke-linejoin="round"/>
</g>
<path d="M113.42 21.2135C116.21 21.2135 118.472 18.9532 118.472 16.165C118.472 13.3768 116.21 11.1165 113.42 11.1165C110.629 11.1165 108.367 13.3768 108.367 16.165C108.367 18.9532 110.629 21.2135 113.42 21.2135Z" stroke="white" stroke-width="2" stroke-miterlimit="10"/>
<path d="M118.977 4.55334H107.862C104.513 4.55334 101.799 7.26572 101.799 10.6116V21.7184C101.799 25.0643 104.513 27.7766 107.862 27.7766H118.977C122.326 27.7766 125.04 25.0643 125.04 21.7184V10.6116C125.04 7.26572 122.326 4.55334 118.977 4.55334Z" stroke="white" stroke-width="2" stroke-linecap="round" stroke-linejoin="round"/>
<path d="M119.988 11.1165C120.825 11.1165 121.504 10.4384 121.504 9.60196C121.504 8.76549 120.825 8.0874 119.988 8.0874C119.151 8.0874 118.472 8.76549 118.472 9.60196C118.472 10.4384 119.151 11.1165 119.988 11.1165Z" fill="white"/>
<path d="M54.8107 25.2525C54.8107 25.2525 59.8632 24.2428 60.8737 21.2136C60.8737 21.2136 52.7897 18.1845 54.8107 7.07771C54.8107 7.07771 58.8527 12.1263 64.9157 13.136V11.1169C64.9158 9.95695 65.3156 8.8324 66.0478 7.93233C66.7801 7.03225 67.8002 6.41153 68.9365 6.17452C70.0729 5.93752 71.2563 6.09868 72.2877 6.63092C73.3192 7.16316 74.1358 8.03402 74.6003 9.09707L79.0627 9.09712L75.0207 13.136C75.0207 20.2039 69.9682 27.2719 60.8737 27.2719C56.8317 27.2719 54.8107 25.2525 54.8107 25.2525Z" stroke="white" stroke-width="2" stroke-linecap="round" stroke-linejoin="round"/>
<path d="M26.5167 5.05823H6.30664C5.74856 5.05823 5.29614 5.51029 5.29614 6.06794V26.2621C5.29614 26.8198 5.74856 27.2718 6.30664 27.2718H26.5167C27.0747 27.2718 27.5272 26.8198 27.5272 26.2621V6.06794C27.5272 5.51029 27.0747 5.05823 26.5167 5.05823Z" stroke="white" stroke-width="2" stroke-linecap="round" stroke-linejoin="round"/>
<path d="M15.4012 14.1456V22.2233" stroke="white" stroke-width="2" stroke-linecap="round" stroke-linejoin="round"/>
<path d="M11.3592 14.1456V22.2233" stroke="white" stroke-width="2" stroke-linecap="round" stroke-linejoin="round"/>
<path d="M15.4012 17.6796C15.4012 16.7423 15.7738 15.8435 16.437 15.1807C17.1003 14.518 17.9999 14.1456 18.9379 14.1456C19.8759 14.1456 20.7755 14.518 21.4388 15.1807C22.102 15.8435 22.4747 16.7423 22.4747 17.6796V22.2233" stroke="white" stroke-width="2" stroke-linecap="round" stroke-linejoin="round"/>
<path d="M11.3591 11.6214C12.1963 11.6214 12.8749 10.9433 12.8749 10.1068C12.8749 9.27038 12.1963 8.59229 11.3591 8.59229C10.522 8.59229 9.84338 9.27038 9.84338 10.1068C9.84338 10.9433 10.522 11.6214 11.3591 11.6214Z" fill="white"/>
<defs>
<clipPath id="clip0_0_234">
<rect width="32.336" height="32.3107" fill="white" transform="translate(145.756 0.00976562)"/>
</clipPath>
</defs>
</svg>
