<svg width="251" height="176" viewBox="0 0 251 176" fill="none" xmlns="http://www.w3.org/2000/svg">
<g filter="url(#filter0_d_0_162)">
<rect x="40.5" y="10" width="170" height="96" rx="16" fill="white"/>
</g>
<g clip-path="url(#clip0_0_162)">
<path fill-rule="evenodd" clip-rule="evenodd" d="M162.876 56.8409L156.639 67.6752L151.317 67.6965L162.876 47.3039L174.392 67.6965H168.986L162.876 56.8398V56.8409ZM146.081 62.98H152.041L149.274 67.6965H141.506L141.527 61.9536V47.4293H146.103L146.082 62.98H146.081ZM129.735 47.4303C135.418 47.4516 140.016 51.9778 139.995 57.573C139.974 63.1479 135.376 67.6752 129.692 67.6752C124.03 67.654 119.433 63.1277 119.433 57.5315C119.454 51.9566 124.051 47.4303 129.735 47.4303ZM129.714 62.9598C132.757 62.9598 135.204 60.549 135.204 57.573C135.226 54.598 132.757 52.1659 129.735 52.1659C126.712 52.1446 124.243 54.5767 124.243 57.5528C124.222 60.5278 126.691 62.9598 129.713 62.9598H129.714ZM110.961 55.9633C110.898 55.1239 110.684 54.0136 110.365 52.9458C109.708 50.7402 108.566 48.7125 107.023 47.0138C106.214 46.1341 105.3 45.316 103.936 44.3523C102.896 43.835 101.874 43.2829 100.872 42.6969C100.212 42.3197 99.4237 41.8575 98.3815 41.5228C97.1458 41.2287 95.8827 41.0674 94.6133 41.0415C93.3804 40.999 92.1443 41.1053 90.9525 41.3348C89.6964 41.5441 88.6532 41.8788 87.2696 42.2145C84.1399 43.5766 81.7142 45.6305 79.6277 48.3558C72.3483 58.6036 78.9259 72.9601 91.08 74.6569C93.0811 74.93 95.0822 74.8248 96.9758 74.3849L98.3173 74.029C98.3594 74.0077 98.4237 73.9865 98.4658 73.9865L99.9991 73.4C100.083 73.3575 100.148 73.3362 100.233 73.2948L100.872 73.0015C102.097 72.3918 103.247 71.6394 104.298 70.7596C103.341 71.6365 102.3 72.4156 101.191 73.0855L101.254 73.128C101.468 73.0642 101.659 73.0015 101.872 72.9601C101.872 72.9601 101.872 73.2948 101.829 73.2321C101.489 73.4839 102.021 73.2533 102.702 72.8963C103.384 72.5404 104.043 72.0995 104.639 71.5969C105.512 70.8638 106.278 70.0669 107.364 68.7685C108.47 66.8188 109.855 65.121 110.493 62.8366C110.706 62.2288 110.897 61.517 111.026 60.7828C111.152 60.0497 111.239 59.2953 111.239 58.5196C111.217 57.744 111.132 56.9471 110.961 55.9633ZM95.2097 73.1907C98.9348 72.6031 102.063 70.5291 104.618 67.6996C105.321 66.6722 105.874 65.7287 106.555 64.7023C107.406 62.606 107.343 60.7413 107.619 59.4217C107.96 57.0311 107.151 55.1037 106.47 53.0499C105.427 50.6603 104.043 48.8796 101.617 47.4962C95.4858 43.6818 87.1421 44.7496 83.162 50.451C83.141 50.451 83.0335 50.5976 82.8206 50.8909C83.0978 49.7179 83.8006 49.0262 84.5024 48.3547C86.5889 46.6366 89.0157 45.2735 91.7829 44.6041C94.9126 44.2683 98.0191 44.6041 100.807 45.9662C104.98 48.3547 107.747 52.1075 108.449 56.5487V60.6574C107.577 67.3852 101.829 72.499 95.2097 73.1907ZM110.515 57.8906C110.365 48.0413 100.638 41.3975 91.1654 42.7394C88.3982 43.43 85.3749 44.8134 83.2253 46.7418C82.182 47.4325 81.6931 48.7117 80.6499 49.7381C76.477 55.8793 77.202 63.7386 82.3949 68.5178C83.061 69.1818 83.7723 69.7981 84.5235 70.3623C80.182 67.7411 78.2231 63.779 77.5423 58.9606C77.5423 57.2415 77.8827 55.5436 78.2441 53.8255C80.672 46.3009 88.3128 40.8311 96.6365 42.2145C98.0201 42.5503 99.4037 42.9062 100.809 43.242C102.554 43.9326 104.278 44.96 105.662 46.3232C107.046 47.6843 108.089 49.4034 109.132 51.1002C109.834 52.4634 110.175 54.1815 110.516 55.5436C110.579 56.3192 110.579 57.1161 110.516 57.8917L110.515 57.8906Z" fill="black"/>
<path fill-rule="evenodd" clip-rule="evenodd" d="M101.873 58.0383C101.873 62.2723 98.3393 65.7095 93.9756 65.7095C89.6131 65.7095 86.0787 62.2723 86.0787 58.0383C86.0787 53.8053 89.612 50.3681 93.9756 50.3681C98.3393 50.3681 101.873 53.8053 101.873 58.0393V58.0383Z" fill="white"/>
<path fill-rule="evenodd" clip-rule="evenodd" d="M101.916 56.7388C101.809 56.1523 101.639 55.6912 101.469 55.042C100.787 53.6161 99.7871 52.5058 98.4667 51.5623C93.5288 48.2728 86.7384 51.4369 86.0155 57.0544C85.7394 59.2761 86.5266 61.4138 87.9312 63.049C87.5055 62.6081 87.0376 62.148 86.7183 61.6231L86.6762 61.6656C86.7183 61.791 86.889 61.8749 86.9312 62.0003C86.9312 62.0003 86.7605 62.0003 86.8037 61.9791C86.6762 61.8335 86.7826 62.0641 86.9733 62.3775C87.1441 62.692 87.3569 62.9863 87.6119 63.2583C87.9744 63.6568 88.3569 64.0127 88.9955 64.4951C89.9334 64.9764 90.7627 65.6054 91.8481 65.8986C92.1463 65.9836 92.4866 66.0665 92.8281 66.1292C93.1895 66.1929 93.5299 66.2142 93.9134 66.2142C94.2749 66.2142 94.6584 66.1717 95.1263 66.0867C95.6088 66.0294 96.0857 65.9317 96.5521 65.7945C97.5938 65.4783 98.5534 64.9341 99.3624 64.2008C99.7671 63.8246 100.342 63.3423 100.788 62.7133C101.151 62.0014 101.193 61.6444 101.364 61.3299C101.533 61.0154 101.746 60.6594 101.896 60.1771C102.018 59.6048 102.089 59.0227 102.109 58.4378C102.087 57.8513 102.045 57.2849 101.917 56.7399L101.916 56.7388ZM96.8492 52.8416C97.5732 53.2602 97.6796 53.3229 97.296 53.0509C97.8503 53.1763 98.1907 53.4908 98.531 53.8053C99.3614 54.7488 100.042 55.8591 100.382 57.1373C100.574 58.5833 100.425 60.0294 99.8082 61.3086C98.7017 63.2573 96.9346 64.5567 94.827 64.9126C94.5931 64.9126 94.3381 64.9126 94.1031 64.9339C94.6995 64.8287 95.0831 64.4515 96.1685 64.0531C97.3382 63.6344 98.6585 61.6858 99.2982 60.5532C101.171 57.4719 98.9567 54.6223 96.8492 52.8416ZM92.8481 64.9541C89.613 64.6194 87.1219 61.9578 86.7816 58.8766C87.0787 60.5957 88.1009 61.9153 89.4845 63.0894C89.9745 63.4039 90.6973 63.8438 91.1873 64.1583C92.0177 64.4728 92.5067 64.8085 93.316 64.9551H92.8481V64.9541ZM101.553 59.3589C101.406 60.0092 101.256 60.6371 101.106 61.2874C100.787 62.0843 100.319 62.9013 99.6807 63.5505C99.0421 64.2008 98.2328 64.7033 97.4246 65.1857C96.786 65.5204 95.9767 65.6883 95.317 65.8551C94.9335 65.8976 94.4867 65.7297 94.1031 65.7095C98.8292 65.5831 102.064 61.162 101.362 56.7813C101.021 55.5031 100.34 54.3918 99.51 53.2814C99.1696 52.7991 98.5089 52.5058 98.02 52.0234C95.061 50.1588 91.1452 50.5359 88.9102 52.9882C88.5968 53.3104 88.3049 53.6533 88.0366 54.0146C89.2295 52.254 91.1452 51.0183 93.4435 50.6613C94.2527 50.6401 95.0831 50.7878 95.8914 50.9344C99.4678 52.0234 102.129 55.5031 101.553 59.36V59.3589Z" fill="#D7DF23"/>
</g>
<defs>
<filter id="filter0_d_0_162" x="0.5" y="0" width="250" height="176" filterUnits="userSpaceOnUse" color-interpolation-filters="sRGB">
<feFlood flood-opacity="0" result="BackgroundImageFix"/>
<feColorMatrix in="SourceAlpha" type="matrix" values="0 0 0 0 0 0 0 0 0 0 0 0 0 0 0 0 0 0 127 0" result="hardAlpha"/>
<feOffset dy="30"/>
<feGaussianBlur stdDeviation="20"/>
<feColorMatrix type="matrix" values="0 0 0 0 0.831373 0 0 0 0 0.85098 0 0 0 0 0.909804 0 0 0 0.2 0"/>
<feBlend mode="normal" in2="BackgroundImageFix" result="effect1_dropShadow_0_162"/>
<feBlend mode="normal" in="SourceGraphic" in2="effect1_dropShadow_0_162" result="shape"/>
</filter>
<clipPath id="clip0_0_162">
<rect width="98" height="34" fill="white" transform="translate(76.5 41)"/>
</clipPath>
</defs>
</svg>
