<svg width="77" height="77" viewBox="0 0 77 77" fill="none" xmlns="http://www.w3.org/2000/svg">
<path d="M39.8311 57.4356L54.9614 67.014C56.8954 68.2384 59.2967 66.4174 58.7228 64.1616L54.3513 46.9788C54.2282 46.5002 54.2428 45.9966 54.3934 45.5259C54.5439 45.0553 54.8244 44.6366 55.2025 44.3182L68.7704 33.0343C70.5531 31.5516 69.633 28.5952 67.3425 28.4467L49.6238 27.2976C49.1466 27.2636 48.6888 27.0947 48.3039 26.8108C47.9189 26.5268 47.6226 26.1395 47.4495 25.6938L40.8412 9.06533C40.6615 8.59227 40.3421 8.185 39.9254 7.89761C39.5086 7.61021 39.0142 7.4563 38.5079 7.4563C38.0015 7.4563 37.5071 7.61021 37.0904 7.89761C36.6736 8.185 36.3542 8.59227 36.1746 9.06533L29.5662 25.6938C29.3931 26.1395 29.0968 26.5268 28.7119 26.8108C28.3269 27.0947 27.8692 27.2636 27.3919 27.2976L9.6732 28.4467C7.38274 28.5952 6.46259 31.5516 8.24534 33.0343L21.8132 44.3182C22.1913 44.6366 22.4718 45.0553 22.6224 45.5259C22.773 45.9966 22.7875 46.5002 22.6644 46.9788L18.6104 62.9139C17.9217 65.6209 20.8032 67.8061 23.124 66.3368L37.1846 57.4356C37.58 57.1841 38.0391 57.0505 38.5079 57.0505C38.9766 57.0505 39.4357 57.1841 39.8311 57.4356V57.4356Z" stroke="black" stroke-width="2" stroke-linecap="round" stroke-linejoin="round"/>
</svg>
