<svg width="123" height="122" viewBox="0 0 123 122" fill="none" xmlns="http://www.w3.org/2000/svg">
<path d="M42.6032 75.9225C56.2065 75.9225 67.2341 64.9035 67.2341 51.3108C67.2341 37.7182 56.2065 26.6992 42.6032 26.6992C28.9999 26.6992 17.9722 37.7182 17.9722 51.3108C17.9722 64.9035 28.9999 75.9225 42.6032 75.9225Z" stroke="black" stroke-width="2" stroke-miterlimit="10"/>
<path d="M74.5344 27.6161C77.9222 26.6623 81.4752 26.445 84.9542 26.9789C88.4331 27.5127 91.7571 28.7853 94.7023 30.7109C97.6476 32.6365 100.146 35.1704 102.028 38.1419C103.911 41.1134 105.135 44.4536 105.617 47.9374C106.099 51.4212 105.828 54.9677 104.823 58.3382C103.817 61.7086 102.101 64.8247 99.789 67.4765C97.477 70.1283 94.6232 72.2542 91.4197 73.7112C88.2162 75.1681 84.7374 75.9222 81.2177 75.9226" stroke="black" stroke-width="2" stroke-linecap="round" stroke-linejoin="round"/>
<path d="M8.49677 93.6224C12.3436 88.1548 17.4506 83.6923 23.3864 80.6117C29.3223 77.5311 35.9128 75.9227 42.6015 75.9225C49.2903 75.9222 55.881 77.5301 61.817 80.6102C67.7531 83.6904 72.8604 88.1525 76.7077 93.6198" stroke="black" stroke-width="2" stroke-linecap="round" stroke-linejoin="round"/>
<path d="M81.2178 75.9225C87.9071 75.9177 94.4992 77.5235 100.436 80.6041C106.372 83.6846 111.479 88.1492 115.322 93.6198" stroke="black" stroke-width="2" stroke-linecap="round" stroke-linejoin="round"/>
</svg>
